<svg width="72" height="72" viewBox="0 0 72 72" fill="none" xmlns="http://www.w3.org/2000/svg">
<circle cx="36" cy="36" r="36" fill="white"/>
<path fill-rule="evenodd" clip-rule="evenodd" d="M36 20C31.5817 20 28 23.5817 28 28C28 32.4183 31.5817 36 36 36C40.4183 36 44 32.4183 44 28C44 23.5817 40.4183 20 36 20ZM43.282 37.5388C46.15 35.346 48 31.889 48 28C48 21.3726 42.6274 16 36 16C29.3726 16 24 21.3726 24 28C24 31.889 25.85 35.346 28.718 37.5388C26.7071 38.4283 24.857 39.6871 23.2721 41.2721C22.0482 42.4959 21.0187 43.878 20.2035 45.3702C18.6993 48.1238 19.3128 50.9314 21.0068 52.9168C22.6376 54.828 25.25 56 28 56H44C46.75 56 49.3624 54.828 50.9932 52.9168C52.6872 50.9314 53.3007 48.1238 51.7965 45.3702C50.9813 43.878 49.9518 42.4959 48.7279 41.2721C47.143 39.6872 45.2929 38.4283 43.282 37.5388ZM36 40C32.287 40 28.726 41.475 26.1005 44.1005C25.1485 45.0525 24.3479 46.1273 23.7139 47.2879C23.1 48.4117 23.298 49.4396 24.0496 50.3204C24.8644 51.2753 26.3317 52 28 52H44C45.6683 52 47.1356 51.2753 47.9504 50.3204C48.702 49.4396 48.9 48.4117 48.2861 47.2879C47.6521 46.1274 46.8515 45.0525 45.8995 44.1005C43.274 41.475 39.713 40 36 40Z" fill="#25262B"/>
</svg>
