<svg width="60" height="60" viewBox="0 0 60 60" fill="none" xmlns="http://www.w3.org/2000/svg">
<path fill-rule="evenodd" clip-rule="evenodd" d="M30 0C13.4315 0 0 13.4315 0 30C0 46.5685 13.4315 60 30 60C46.5685 60 60 46.5685 60 30C60 13.4315 46.5685 0 30 0ZM12.5 29.9503C12.5 20.3282 20.3503 12.5 29.9997 12.5C39.6492 12.5 47.4996 20.3282 47.4996 29.9503C47.4996 31.3135 47.3859 32.417 47.131 33.5246L47.1272 33.543C47.1266 33.5463 47.0001 34.0568 46.9302 34.2796C46.4978 35.659 45.7147 36.8078 44.6656 37.6019C43.6483 38.3721 42.3868 38.7964 41.1138 38.7964C40.9565 38.7964 40.7981 38.79 40.643 38.7776C38.8352 38.6329 37.2457 37.6842 36.271 36.1716C34.5946 37.8525 32.3705 38.7772 29.9997 38.7772C25.1189 38.7772 21.148 34.8175 21.148 29.9503C21.148 25.0833 25.1189 21.1237 29.9997 21.1237C34.8806 21.1237 38.8515 25.0833 38.8515 29.9503V32.7957C38.8588 34.4559 39.9761 35.1346 40.9305 35.2114C41.8802 35.2845 43.1439 34.7329 43.5842 32.9326C43.8014 31.9452 43.9117 30.9416 43.9117 29.9503C43.9117 22.3009 37.6708 16.0777 29.9997 16.0777C22.3287 16.0777 16.0879 22.3009 16.0879 29.9503C16.0879 37.5998 22.3287 43.8231 29.9997 43.8231C32.67 43.8231 35.267 43.0627 37.5099 41.6238L37.5501 41.598L39.9076 44.3312L39.857 44.3657C36.9436 46.3513 33.535 47.4009 29.9997 47.4009C20.3503 47.4009 12.5 39.5726 12.5 29.9503Z" fill="white"/>
<path fill-rule="evenodd" clip-rule="evenodd" d="M35.2636 29.9503C35.2636 32.8447 32.9023 35.1995 29.9998 35.1995C27.0972 35.1995 24.736 32.8447 24.736 29.9503C24.736 27.0561 27.0972 24.7014 29.9998 24.7014C32.9023 24.7014 35.2636 27.0561 35.2636 29.9503" fill="white"/>
</svg>
