<svg width="60" height="60" viewBox="0 0 60 60" fill="none" xmlns="http://www.w3.org/2000/svg">
<path fill-rule="evenodd" clip-rule="evenodd" d="M60 30C60 46.5685 46.5685 60 30 60C13.4315 60 0 46.5685 0 30C0 13.4315 13.4315 0 30 0C46.5685 0 60 13.4315 60 30ZM20.0894 27.2519C17.0842 28.564 13.9964 29.9122 11.1728 31.4674L11.1726 31.4677C9.69826 32.5471 11.658 33.3106 13.4963 34.0268C13.7886 34.1407 14.0778 34.2534 14.3496 34.3659C14.5758 34.4354 14.8059 34.5087 15.039 34.583C17.0836 35.2344 19.3634 35.9608 21.3484 34.8681C24.6091 32.995 27.6863 30.8295 30.7611 28.6656C31.7685 27.9566 32.7756 27.2479 33.7889 26.5496C33.8363 26.5192 33.8899 26.4845 33.9485 26.4466C34.8117 25.887 36.753 24.6286 36.0349 26.3626C34.3368 28.2196 32.518 29.8634 30.6893 31.5162C29.4569 32.6301 28.2199 33.7481 27.0124 34.9381C25.9607 35.7926 24.8687 37.511 26.0463 38.7076C28.7587 40.6064 31.5134 42.4592 34.2666 44.3109C35.1625 44.9135 36.0582 45.5159 36.9523 46.1198C38.4675 47.3296 40.8356 46.351 41.1688 44.4606C41.317 43.5909 41.4657 42.7212 41.6145 41.8514C42.4364 37.0457 43.2587 32.2382 43.985 27.4168C44.0837 26.6606 44.1957 25.9043 44.3076 25.1477C44.579 23.3138 44.8507 21.4776 44.9356 19.6338C44.7168 17.7939 42.4859 18.1985 41.2443 18.6122C34.8628 21.0404 28.5451 23.6487 22.2523 26.3029C21.5395 26.6188 20.8169 26.9343 20.0894 27.2519Z" fill="white"/>
</svg>
